<svg width="104" height="78" viewBox="0 0 104 78" fill="none" xmlns="http://www.w3.org/2000/svg">
<path fill-rule="evenodd" clip-rule="evenodd" d="M45.3794 45.3087H32.5293L51.8044 26.0337L71.0794 45.3087H58.2294V77.4337H45.3794V45.3087ZM77.5044 19.6086C77.5044 16.7816 71.6577 0.333618 48.5919 0.333618C33.0433 0.333618 19.6793 12.6696 19.6793 26.0337C6.95781 26.0337 0.404297 35.7997 0.404297 45.3087C0.404297 55.1389 6.82931 64.5837 19.6793 64.5837H38.9544V56.2312L19.6793 56.2312C9.27081 56.2312 8.75681 47.1077 8.75681 45.3087C8.75681 44.2164 9.07806 34.3862 19.6793 34.3862H28.0318V26.0337C28.0318 17.1029 38.0549 8.68613 48.5919 8.68613C64.9756 8.68613 68.7022 18.6449 69.1519 20.2511V27.9612L77.5044 27.9612C82.7087 27.9612 94.8519 29.3747 94.8519 42.0962C94.8519 55.5244 80.3957 56.2312 77.5044 56.2312H64.6544L64.6544 64.5837H77.5044C90.8684 64.5837 103.204 57.1307 103.204 42.0962C103.204 26.4192 90.8684 19.6086 77.5044 19.6086Z" fill="#F4E94B"/>
</svg>
