<svg  viewBox="0 0 27 27" fill="none" xmlns="http://www.w3.org/2000/svg">
<path d="M25.9497 19.7173V23.4808C25.9511 23.8302 25.8795 24.176 25.7396 24.4961C25.5996 24.8163 25.3943 25.1036 25.1369 25.3398C24.8794 25.576 24.5755 25.7558 24.2445 25.8678C23.9135 25.9797 23.5628 26.0213 23.2149 25.9898C19.3546 25.5704 15.6465 24.2513 12.3885 22.1385C9.35743 20.2124 6.78759 17.6426 4.86151 14.6115C2.74137 11.3387 1.42196 7.6126 1.01018 3.73494C0.978833 3.38803 1.02006 3.03839 1.13124 2.70828C1.24242 2.37818 1.42112 2.07484 1.65596 1.81758C1.89079 1.56032 2.17663 1.35478 2.49525 1.21404C2.81388 1.0733 3.15832 1.00045 3.50664 1.00012H7.27015C7.87897 0.99413 8.46919 1.20972 8.93081 1.60671C9.39243 2.00371 9.69395 2.55501 9.77916 3.15787C9.938 4.36227 10.2326 5.54484 10.6573 6.68302C10.8261 7.13204 10.8626 7.62003 10.7626 8.08917C10.6625 8.55831 10.4301 8.98893 10.0928 9.33002L8.49956 10.9232C10.2854 14.0639 12.8859 16.6644 16.0266 18.4503L17.6198 16.857C17.9609 16.5197 18.3915 16.2873 18.8607 16.1872C19.3298 16.0872 19.8178 16.1237 20.2668 16.2925C21.405 16.7172 22.5875 17.0118 23.792 17.1707C24.4013 17.2566 24.9579 17.5636 25.3557 18.0331C25.7536 18.5027 25.965 19.1021 25.9497 19.7173Z" stroke="currentColor" stroke-width="2" stroke-linecap="round" stroke-linejoin="round"/>
</svg>
