<svg width="19" height="23" viewBox="0 0 19 23" fill="none" xmlns="http://www.w3.org/2000/svg">
<path d="M16.5398 5.37711C16.392 5.30049 16.2531 5.21936 16.1139 5.12921C15.715 4.8678 15.3472 4.55184 15.02 4.20028C14.2042 3.26683 13.8995 2.31986 13.7873 1.65685H13.7918C13.698 1.10607 13.7381 0.75 13.7426 0.75H10.0269V15.1181C10.0269 15.311 10.0273 15.5012 10.0188 15.6901C10.0179 15.7135 10.0165 15.737 10.0152 15.7599C10.0143 15.7708 10.0138 15.7816 10.0129 15.7924C10.0129 15.7951 10.0125 15.7978 10.0125 15.8005C9.93087 16.8768 9.31203 17.8017 8.42501 18.3047C7.95638 18.5709 7.42655 18.7105 6.8876 18.7099C5.15683 18.7099 3.75328 17.2983 3.75328 15.5567C3.75328 13.8151 5.15638 12.4034 6.8876 12.4034C7.21531 12.4031 7.54101 12.4547 7.8526 12.5562L7.8571 8.77285C7.16254 8.67369 6.45851 8.68271 5.76846 8.8044C5.31143 8.89004 4.86296 9.02075 4.43252 9.20104C3.74652 9.46696 3.10559 9.85053 2.54084 10.3283C1.89991 10.8831 1.36175 11.5506 0.949791 12.2898C0.79294 12.5603 0.201142 13.6474 0.129477 15.4106C0.084856 16.4117 0.385037 17.4492 0.528366 17.8774V17.8864C0.61806 18.1389 0.96782 19.0002 1.53708 19.7263C1.99862 20.3082 2.53678 20.8175 3.14616 21.2416V21.2326L3.15517 21.2416C4.95265 22.464 6.9471 22.3824 6.9471 22.3824C7.29235 22.3689 8.4489 22.3824 9.76185 21.76C11.2186 21.0699 12.0479 20.0418 12.0479 20.0418C12.1732 19.8886 12.8547 19.1264 13.2942 17.9716C13.6304 17.0878 13.7426 16.0281 13.7426 15.604V7.98228C13.7873 8.00933 14.3881 8.40641 14.3881 8.40641C14.3881 8.40641 15.253 8.96125 16.6025 9.32183C17.5706 9.57874 18.875 9.63283 18.875 9.63283V5.94367C18.418 5.99505 17.4899 5.85082 16.5398 5.37711Z" fill="currentColor"/>
</svg>
