<svg  viewBox="0 0 33 27" fill="none" xmlns="http://www.w3.org/2000/svg">
<path d="M31.6515 1.01401C30.3173 1.95512 28.84 2.67491 27.2767 3.14568C26.4376 2.18087 25.3224 1.49704 24.082 1.18667C22.8416 0.876302 21.5358 0.954373 20.3412 1.41032C19.1466 1.86628 18.1208 2.67811 17.4027 3.73602C16.6845 4.79394 16.3086 6.04689 16.3257 7.32542V8.71867C13.8773 8.78216 11.4511 8.23913 9.26337 7.13796C7.0756 6.03678 5.19412 4.41163 3.7865 2.40726C3.7865 2.40726 -1.7865 14.9465 10.7527 20.5195C7.88338 22.4672 4.46523 23.4438 1 23.306C13.5392 30.2722 28.865 23.306 28.865 7.28363C28.8637 6.89554 28.8264 6.50842 28.7535 6.12723C30.1755 4.72492 31.1789 2.9544 31.6515 1.01401V1.01401Z" stroke="currentColor" stroke-width="2" stroke-linecap="round" stroke-linejoin="round"/>
</svg>
